<svg id="Layer_1" fill="#FF781D" data-name="Layer 1" xmlns="http://www.w3.org/2000/svg" viewBox="0 0 512 319.99"><path d="M404.27,315.41c-10-21-46-50-80.73-78.12-19.37-15.66-37.67-30.47-49.34-42.14A10.67,10.67,0,0,0,263,192.66c-7.19,2.6-11.63,4.61-15.12,6.16-5.34,2.39-7.13,3.2-14.32,3.93a10.65,10.65,0,0,0-7.81,4.67c-15.08,22.55-30.7,20.63-41.13,17.13-3.33-1.11-3.92-2.54-4.24-3.9-2.24-9.37,9-31.17,23.57-45.74,34.67-34.69,52.54-43.37,90.3-26.5,42.84,19.16,85.76,34.16,86.19,34.31a10.67,10.67,0,0,0,7-20.16c-.43-.15-42.5-14.85-84.48-33.65-48.92-21.86-75.76-7.46-114.09,30.89-14.59,14.6-34.41,44.12-29.29,65.77,2.19,9.22,8.68,16.05,18.32,19.23,24.17,8,46.23.34,62.66-21.47,6.78-1,10.47-2.58,16-5.07,2-.9,4.35-1.94,7.47-3.2,12.2,11.45,28.67,24.79,46,38.8C341.48,279.23,377,308,385,324.63c3.95,8.21-.29,13.56-3.17,16-4.23,3.62-10,4.78-13.14,2.58a10.67,10.67,0,0,0-16.67,9.92c.73,6.78-5.48,10.66-8.17,12-6.82,3.45-13.95,2.86-16.62.38a10.66,10.66,0,0,0-17.89,6.81,20.29,20.29,0,0,1-12.59,16.34c-3.27,1.24-8,2-12.25-1.9a10.79,10.79,0,0,0-9.75-2.48,10.67,10.67,0,0,0-7.48,6.72c-.41,1.07-1.33,3.63-11.31,3.63-7.1,0-19.88-4.8-26.13-8.94-7.49-4.93-54.45-40-95-73.92-5.7-4.8-15.55-15.08-24.26-24.17-7.72-8.06-14.78-15.38-18.41-18.45a10.67,10.67,0,0,0-13.78,16.3c3.31,2.79,9.71,9.56,16.77,16.91,9.51,9.95,19.35,20.23,26,25.78,39.73,33.25,87.47,69.16,97,75.41C226,408.74,242.9,416,256,416c10.52,0,18.6-2.41,24.21-7.12a33.23,33.23,0,0,0,24.26-.26,42,42,0,0,0,22.21-20.5,41.22,41.22,0,0,0,26.77-3.86c8.56-4.31,14.74-10.9,17.81-18.6a34.87,34.87,0,0,0,24.47-8.77C408,346.41,411.35,330.11,404.27,315.41Z" transform="translate(0 -96)"/><path d="M213.33,138.66h-96a10.67,10.67,0,0,0,0,21.34h96a10.67,10.67,0,0,0,0-21.34Z" transform="translate(0 -96)"/><path d="M435.52,292.71a10.65,10.65,0,0,0-14.81-2.9l-31.18,20.95a10.67,10.67,0,0,0,11.9,17.71l31.19-21A10.69,10.69,0,0,0,435.52,292.71Z" transform="translate(0 -96)"/><path d="M369.3,343.61c-7.64-6-41.79-41-62.91-63A10.67,10.67,0,1,0,291,295.38c5.48,5.72,53.84,56.13,65.08,65a10.6,10.6,0,0,0,6.6,2.28,10.67,10.67,0,0,0,6.63-19.05Z" transform="translate(0 -96)"/><path d="M326.68,365c-12.78-10.22-44.89-44.33-52.14-52.22a10.68,10.68,0,0,0-15.73,14.44c.39.4,38.7,41.77,54.53,54.44A10.67,10.67,0,1,0,326.68,365Z" transform="translate(0 -96)"/><path d="M284.22,386.49C269,373.67,237.89,340.54,231.81,334a10.68,10.68,0,0,0-15.6,14.58c8.75,9.36,38.53,40.93,54.25,54.2a10.67,10.67,0,1,0,13.76-16.32Z" transform="translate(0 -96)"/><path d="M124.67,120.25C106.39,102.93,33.28,97.32,11.31,96A10.66,10.66,0,0,0,0,106.66v192a10.67,10.67,0,0,0,10.67,10.67h64A10.66,10.66,0,0,0,84.8,302c1.56-4.78,38.32-117.59,43.16-173.06A10.61,10.61,0,0,0,124.67,120.25ZM66.88,288H21.33V118.1c34.29,2.71,71.28,8.59,84.72,15.12C100.39,179.94,74.82,263,66.88,288Z" transform="translate(0 -96)"/><path d="M501.33,117.33c-83.75,0-130.22,21.44-132.16,22.34a10.6,10.6,0,0,0-5.69,6.63,10.73,10.73,0,0,0,1.17,8.66c13.18,21.23,54.46,139.12,62.4,167.87a10.66,10.66,0,0,0,10.28,7.83h64A10.67,10.67,0,0,0,512,320V128A10.66,10.66,0,0,0,501.33,117.33Zm-10.66,192H445.31c-10.11-32.94-40-118.83-56.64-154.33,16.28-5.52,51.25-15,102-16.21Z" transform="translate(0 -96)"/></svg>