<svg id="Camada_1" fill="#FF781D" data-name="Camada 1" xmlns="http://www.w3.org/2000/svg" viewBox="0 0 512 512"><path d="M511,68.36a17.52,17.52,0,0,0-14.64-11.73l-36.75-4.24-4.24-36.74a17.65,17.65,0,0,0-30-10.46L352.72,77.82a17.56,17.56,0,0,0-5.06,14.51l5.25,45.54-16.18,16.18C256.78,85,135.46,88.4,59.58,164.27c-79.44,79.44-79.44,208.71,0,288.15s208.71,79.44,288.15,0C423.6,376.54,427,255.22,358,175.27l16.18-16.18,45.54,5.25a17.59,17.59,0,0,0,14.51-5.05l72.63-72.64A17.52,17.52,0,0,0,511,68.36ZM326.51,431.2c-67.74,67.75-178,67.75-245.71,0s-67.75-178,0-245.71c64.17-64.17,166.46-67.55,234.65-10.15L288,202.77c-53-42.42-130.82-39.08-179.92,10-52.69,52.69-52.69,138.42,0,191.11s138.42,52.69,191.11,0c49.1-49.1,52.44-126.9,10-179.92l27.43-27.43C394.06,264.74,390.68,367,326.51,431.2ZM195.73,316.27a15,15,0,0,0,21.22,0l19.94-19.95a35.29,35.29,0,1,1-21.21-21.21l-20,19.94A15,15,0,0,0,195.73,316.27ZM238,252.75A65.29,65.29,0,1,0,259.25,274l28.59-28.6a105.13,105.13,0,1,1-21.21-21.21Zm179.15-118.9-35-4-4-35,50.34-50.34,2.54,22A16.46,16.46,0,0,0,445.54,81l22,2.54Z" transform="translate(0 0)"/></svg>