<svg id="Capa_1" data-name="Capa 1" xmlns="http://www.w3.org/2000/svg" viewBox="0 0 512 411.5"><path d="M444.61,50.25H137a67.47,67.47,0,0,0-67.39,67.39v9.11H67.39A67.47,67.47,0,0,0,0,194.14V394.36a67.47,67.47,0,0,0,67.39,67.39H375a67.47,67.47,0,0,0,67.39-67.39v-9.11h2.22A67.47,67.47,0,0,0,512,317.86V117.64a67.47,67.47,0,0,0-67.39-67.39ZM412.39,394.36A37.43,37.43,0,0,1,375,431.75H67.39A37.43,37.43,0,0,1,30,394.36V305.25H412.39Zm0-119.11H30v-42H412.39Zm0-72H30v-9.11a37.43,37.43,0,0,1,37.39-37.39H375a37.43,37.43,0,0,1,37.39,37.39ZM482,317.86a37.43,37.43,0,0,1-37.39,37.39h-2.22V194.14A67.47,67.47,0,0,0,375,126.75H99.61v-9.11A37.43,37.43,0,0,1,137,80.25H444.61A37.43,37.43,0,0,1,482,117.64Z" transform="translate(0 -50.25)"/><path d="M72.67,351.25h132v30h-132Z" transform="translate(0 -50.25)"/><path d="M314.67,351.25h55.05v30H314.67Z" transform="translate(0 -50.25)"/></svg>