<svg id="Capa_1" data-name="Capa 1" xmlns="http://www.w3.org/2000/svg" viewBox="0 0 512 473.3"><path d="M487.52,243.42a56,56,0,0,0-39.32-16.49h-.5a56,56,0,0,0-39.1,15.8L343.8,305.3H329a45.19,45.19,0,0,0-42.56-30.14H230.12A85.72,85.72,0,0,0,114,279.39L0,386.4,106.25,492.65l73.85-67H350.79L512,267.9ZM338.64,395.65H168.52l-61.26,55.58L43.1,387.08l91.55-86c23.75-23.77,61.75-20.69,83.39,4.06h68.41a15.13,15.13,0,0,1,15.12,15.12v15.13H196.08v30H331.57V335.3h24.35l73.52-71a26.43,26.43,0,0,1,36.87.33l3.24,3.24c-38.24,37.84-112.23,109.65-130.91,127.77Z" transform="translate(0 -19.35)"/><path d="M304.3,242.86A111.76,111.76,0,1,0,192.55,131.1,111.89,111.89,0,0,0,304.3,242.86Zm0-193.51a81.76,81.76,0,1,1-81.75,81.75A81.85,81.85,0,0,1,304.3,49.35Z" transform="translate(0 -19.35)"/><path d="M344.92,122.49H319.3V81.54h-30v71h55.62Z" transform="translate(0 -19.35)"/></svg>