<svg id="Camada_1" fill="#FF781D" data-name="Camada 1" xmlns="http://www.w3.org/2000/svg" viewBox="0 0 484.05 511"><path d="M485.37,127.73C468,82.35,434.94,46.53,389.87,24.11,348.7,3.64,299.43-4.17,251.13,2.12,215.4,6.77,181.47,19.26,153,38.25,97.42,75.31,61,135.34,55.47,198.8c-.82,9.53.58,19.06,1.93,28.28,1.41,9.68,2.76,18.81,1.11,25.37v0c-.36,1.46-4.45,15.13-35.6,46a30.14,30.14,0,0,0,14.53,50.8c4.44,1,8.47,1.9,12,2.68l3.33.74c.2,24.41.52,53.15,1,58.53,1,12.54,6.56,23,15.93,30.36,13,10.16,32.62,13.47,56.79,9.59,18.64-3,29.72,1.73,32.95,14,.29,2.44,1.14,9.91,1.69,18.07A29.85,29.85,0,0,0,190.77,511H383.38a29.82,29.82,0,0,0,29.78-29.79V427.92c0-37.57,5.91-63.13,17.56-76,28.89-31.85,49.53-67.63,59.68-103.47C502,207.4,500.35,166.77,485.37,127.73ZM461.6,240.33c-8.9,31.42-27.25,63.06-53.06,91.5-17,18.78-25.32,50.21-25.32,96.09v53.14H190.93c-.73-10.75-1.9-20.06-2-20.45l-.1-.77-.18-.75c-3.11-13.37-10.55-24-21.52-30.78-12-7.39-27.29-9.65-45.5-6.72C106.4,424,94.16,422.72,88.09,418c-1.74-1.35-4.09-3.79-4.55-9.29-.22-2.6-.58-19.7-.89-59.33a26,26,0,0,0-20.31-25.23l-6.46-1.44c-3.47-.76-7.44-1.64-11.81-2.63l-.1,0a1.44,1.44,0,0,1-.09-.21l.08-.09c24.85-24.6,39.92-45.34,43.58-60,3.1-12.32,1.26-24.87-.52-37-1.15-7.87-2.24-15.31-1.72-21.36,2.32-26.89,11.48-53.95,26.49-78.25a196.78,196.78,0,0,1,57.83-60C194.28,46.71,223.8,35.87,255,31.81c42.46-5.53,85.63,1.26,121.54,19.11,38.23,19,66.2,49.29,80.87,87.54C470,171.32,471.43,205.6,461.6,240.33Z" transform="translate(-13.97 0)"/><path d="M350.91,128.08c-34.86-14.18-61.94,2.38-75.86,14.64-14-12.21-41.14-28.7-76-14.55A79.22,79.22,0,0,0,155,173.34a87.21,87.21,0,0,0,2.3,68.57c23.11,49.29,70.64,90.69,106.44,116.74a19.26,19.26,0,0,0,22.73,0c51.83-37.72,87.57-77,106.24-116.84a87.21,87.21,0,0,0,2.3-68.57A79.2,79.2,0,0,0,350.91,128.08Zm14.69,101c-10.94,23.33-35.5,59.41-90.51,100.72-55.29-41.51-79.83-77.46-90.7-100.62a57.28,57.28,0,0,1-1.53-44.95,49.61,49.61,0,0,1,27.49-28.34,41.08,41.08,0,0,1,15.58-3.19c16.09,0,28.17,10.39,34.73,17.77A19.25,19.25,0,0,0,275.08,177h0a19.31,19.31,0,0,0,14.44-6.54c8.47-9.63,26.22-24.32,50.08-14.62a49.58,49.58,0,0,1,27.49,28.34A57.26,57.26,0,0,1,365.6,229.1Z" transform="translate(-13.97 0)"/></svg>