<svg id="Capa_1" fill="#FF781D" data-name="Capa 1" xmlns="http://www.w3.org/2000/svg" viewBox="0 0 512 446"><path d="M256,207a87,87,0,1,0-87-87A87.1,87.1,0,0,0,256,207Zm0-144a57,57,0,1,1-57,57A57.06,57.06,0,0,1,256,63Z" transform="translate(0 -33)"/><path d="M432,207a55,55,0,1,0-55-55A55.06,55.06,0,0,0,432,207Zm0-80a25,25,0,1,1-25,25A25,25,0,0,1,432,127Z" transform="translate(0 -33)"/><path d="M444.1,241H420.9a68,68,0,0,0-61.69,39.35A120.73,120.73,0,0,0,270,241H242a120.73,120.73,0,0,0-89.23,39.35A68,68,0,0,0,91.1,241H67.9C30.46,241,0,271.28,0,308.49V417.7A29.38,29.38,0,0,0,29.41,447h91.73A35.06,35.06,0,0,0,156,479H356a35.06,35.06,0,0,0,34.88-32h90.68A30.43,30.43,0,0,0,512,416.66V308.49c0-37.21-30.46-67.49-67.9-67.49ZM30,308.49A37.74,37.74,0,0,1,67.9,271H91.1A37.74,37.74,0,0,1,129,308.49v10.27c-10.09,26.26-8,42-8,98.24H30ZM361,444a5,5,0,0,1-5,5H156a5,5,0,0,1-5-5V362a91.12,91.12,0,0,1,91-91h28a91.12,91.12,0,0,1,91,91Zm121-27.32c0,.52,5.59.34-91,.34,0-56.65,2.07-72-8-98.24V308.49A37.74,37.74,0,0,1,420.9,271h23.2A37.74,37.74,0,0,1,482,308.49Z" transform="translate(0 -33)"/><path d="M80,207a55,55,0,1,0-55-55A55.06,55.06,0,0,0,80,207Zm0-80a25,25,0,1,1-25,25A25,25,0,0,1,80,127Z" transform="translate(0 -33)"/></svg>