<svg fill="#FFFFFF" id="Camada_1" data-name="Camada 1" xmlns="http://www.w3.org/2000/svg" viewBox="0 0 496.03 512">
<path d="M475.84,334.71C443.1,422.77,358,481.92,264,481.92,139.43,481.92,38.08,380.57,38.08,256S139.43,30.08,264,30.08A224.19,224.19,0,0,1,421.38,93.85l-29.29-2.57-2.62,30,78.82,6.91,6.91-78.81-30-2.63L442.93,73a257.51,257.51,0,0,0-64.14-45.84A256.06,256.06,0,0,0,8,256a256,256,0,0,0,496,89.2Z" transform="translate(-8 0)"/>
<path d="M279,163.16H248.94V271h75.18V241H279Z" transform="translate(-8 0)"/>
<path d="M263.62,98.89C177,98.89,106.51,169.37,106.51,256S177,413.11,263.62,413.11,420.73,342.63,420.73,256,350.25,98.89,263.62,98.89Zm0,284.15a127,127,0,1,1,127-127A127.18,127.18,0,0,1,263.62,383Z" transform="translate(-8 0)"/>
</svg>