<svg id="Capa_1" data-name="Capa 1" xmlns="http://www.w3.org/2000/svg" viewBox="0 0 466.41 512"><path d="M474.18,81.45A66.5,66.5,0,0,1,407.75,15V0H104.25V15A66.5,66.5,0,0,1,37.82,81.45h-15v99.94A350.89,350.89,0,0,0,250.74,510l5.26,2,5.27-2A350.9,350.9,0,0,0,489.21,181.39V81.45Zm-15,99.94h0A320.81,320.81,0,0,1,256,479.86,320.81,320.81,0,0,1,52.85,181.39v-71a96.71,96.71,0,0,0,80.28-80.28H378.87a96.71,96.71,0,0,0,80.28,80.28v71Z" transform="translate(-22.79 0)"/><path d="M323.06,141.19l-99.48,99.48L188.94,206l-63.76,63.76,98.4,98.4L386.82,205ZM167.69,269.79l21.25-21.26,34.64,34.64,99.48-99.47L344.31,205,223.58,325.68Z" transform="translate(-22.79 0)"/></svg>