
<svg fill="#FFFFFF" version="1.0" xmlns="http://www.w3.org/2000/svg"
 width="512.000000pt" height="585.000000pt" viewBox="0 0 512.000000 585.000000"
 preserveAspectRatio="xMidYMid meet">

<g transform="translate(0.000000,585.000000) scale(0.100000,-0.100000)"
 stroke="none">
<path d="M95 5141 c-89 -54 -95 -81 -95 -393 0 -299 5 -321 82 -374 l41 -29
2437 0 2437 0 41 29 c77 53 82 75 82 374 0 281 -4 308 -53 360 -52 56 122 52
-2509 52 -2351 0 -2434 -1 -2463 -19z"/>
<path d="M126 3325 c-47 -17 -94 -59 -112 -102 -20 -46 -20 -549 0 -596 17
-43 76 -93 123 -106 53 -15 4793 -15 4846 0 47 13 106 63 123 106 20 46 20
550 0 596 -17 43 -76 93 -123 106 -26 8 -790 11 -2428 11 -2003 -1 -2396 -3
-2429 -15z"/>
<path d="M128 1500 c-46 -14 -85 -48 -107 -93 -20 -41 -21 -60 -21 -308 0
-235 2 -268 19 -304 21 -46 54 -79 94 -94 40 -15 4854 -15 4894 0 40 15 73 48
94 94 17 36 19 69 19 304 0 303 -5 324 -82 377 l-41 29 -2421 2 c-1332 1
-2433 -2 -2448 -7z"/>
</g>
</svg>
